<svg xmlns="http://www.w3.org/2000/svg" viewBox="0 0 128 128" role="img" aria-labelledby="title desc">
  <title id="title">BurryAI Owl</title>
  <desc id="desc">Blue owl brand mark used for BurryAI.</desc>
  <defs>
    <linearGradient id="gBody" x1="0" y1="0" x2="1" y2="1">
      <stop offset="0" stop-color="#8BE9FF"/>
      <stop offset="0.55" stop-color="#3BB9FF"/>
      <stop offset="1" stop-color="#1C4DFF"/>
    </linearGradient>
    <linearGradient id="gFace" x1="0" y1="0" x2="1" y2="1">
      <stop offset="0" stop-color="#FFFFFF"/>
      <stop offset="1" stop-color="#BDE8FF"/>
    </linearGradient>
    <radialGradient id="gEye" cx="50%" cy="45%" r="60%">
      <stop offset="0" stop-color="#B8FF85"/>
      <stop offset="0.6" stop-color="#27D980"/>
      <stop offset="1" stop-color="#0A3A74"/>
    </radialGradient>
  </defs>
  <ellipse cx="64" cy="112" rx="40" ry="8" fill="#17D6FF" opacity="0.35"/>
  <path d="M20 46 L34 24 L48 44 Z" fill="url(#gBody)"/>
  <path d="M108 46 L94 24 L80 44 Z" fill="url(#gBody)"/>
  <circle cx="64" cy="64" r="46" fill="url(#gBody)" stroke="#063A9E" stroke-width="4"/>
  <ellipse cx="64" cy="66" rx="38" ry="30" fill="url(#gFace)"/>
  <ellipse cx="50" cy="60" rx="16" ry="16" fill="#0B1E56"/>
  <ellipse cx="78" cy="60" rx="16" ry="16" fill="#0B1E56"/>
  <circle cx="50" cy="60" r="10" fill="url(#gEye)"/>
  <circle cx="78" cy="60" r="10" fill="url(#gEye)"/>
  <circle cx="46" cy="56" r="3.2" fill="#FFFFFF"/>
  <circle cx="74" cy="56" r="3.2" fill="#FFFFFF"/>
  <path d="M59 68 Q64 74 69 68 Q64 64 59 68 Z" fill="#FFC82E" stroke="#CC8A00" stroke-width="1"/>
  <path d="M39 85 Q64 104 89 85 Q86 105 64 114 Q42 105 39 85 Z" fill="#D7F4FF" stroke="#78C9FF" stroke-width="2"/>
</svg>
